<?xml version="1.0" ?><svg viewBox="0 0 64 64" xmlns="http://www.w3.org/2000/svg"><g data-name="Layer 32" id="Layer_32"><path d="M10,38a5,5,0,0,1-3-9,5,5,0,0,1,0-8,5,5,0,0,1,.07-8.05A5.987,5.987,0,0,1,7,12a6.984,6.984,0,0,1,5.73-6.88A6.018,6.018,0,0,1,18,2a5.931,5.931,0,0,1,4,1.54A5.931,5.931,0,0,1,26,2a6.018,6.018,0,0,1,5.27,3.12A6.984,6.984,0,0,1,37,12a5.987,5.987,0,0,1-.07.95A5,5,0,0,1,37,21a5,5,0,0,1,0,8,5,5,0,0,1-3,9Z" style="fill:#512a20"/><path d="M10,36a3,3,0,0,1-1.8-5.4L10.327,29,8.2,27.4a3,3,0,0,1,0-4.8L10.327,21,8.2,19.4A3.022,3.022,0,0,1,7,17a2.985,2.985,0,0,1,1.247-2.433l.992-.722-.2-1.212A4.117,4.117,0,0,1,9,12a4.98,4.98,0,0,1,4.086-4.912l.934-.169.46-.83A4.031,4.031,0,0,1,18,4a3.956,3.956,0,0,1,2.658,1.022L22,6.238l1.342-1.216A3.956,3.956,0,0,1,26,4a4.031,4.031,0,0,1,3.52,2.089l.46.83.934.169A4.98,4.98,0,0,1,35,12a4.117,4.117,0,0,1-.044.633l-.2,1.212.992.722A2.985,2.985,0,0,1,37,17a3.022,3.022,0,0,1-1.2,2.4L33.673,21,35.8,22.6a3,3,0,0,1,0,4.8L33.673,29,35.8,30.6A3,3,0,0,1,34,36Z" style="fill:#6d3830"/><path d="M18,26v6L6.682,36.244A7.215,7.215,0,0,0,2,43H2V57H42V43a7.215,7.215,0,0,0-4.682-6.756L26,32V26Z" style="fill:#296cd3"/><polygon points="30 33.5 26 32 26 27 18 27 18 32 14 33.5 14 43 30 43 30 33.5" style="fill:#e9baa4"/><path d="M30.857,16H31a3,3,0,0,1,3,3h0a3,3,0,0,1-3,3H13a3,3,0,0,1-3-3h0a3,3,0,0,1,3-3H30.857Z" style="fill:#c68f7c"/><path d="M18,29.933a8.031,8.031,0,0,0,8,0V26H18Z" style="fill:#c68f7c"/><path d="M13,15l1.01,7.07A8.07,8.07,0,0,0,22,29h0a8.07,8.07,0,0,0,7.99-6.93L31,15H29.385A7.954,7.954,0,0,1,22,10h0a7.954,7.954,0,0,1-7.385,5Z" style="fill:#e9baa4"/><rect height="4" style="fill:#c68f7c" width="14" x="15" y="39"/><polygon points="14 41 30 41 24 57 20 57 14 41" style="fill:#f1b850"/><polygon points="11.306 34.51 10 43 13 43 13 48 18 57 21 57 14.827 33.19 11.306 34.51" style="fill:#16417c"/><polygon points="36.038 35.764 29.173 33.19 23 57 26 57 31 48 36.038 35.764" style="fill:#16417c"/><rect height="12" style="fill:#215ab6" width="2" x="8" y="45"/><circle cx="46" cy="46" r="16" style="fill:#ba3535"/><path d="M46,30a15.911,15.911,0,0,0-9.7,3.3A15.98,15.98,0,0,0,58.7,55.7,15.98,15.98,0,0,0,46,30Z" style="fill:#d34f4f"/><path d="M49.218,46.218l5.16,5.16a2.123,2.123,0,0,1,.622,1.5h0A2.123,2.123,0,0,1,52.879,55h0a2.123,2.123,0,0,1-1.5-.622l-5.16-5.16-.857-3.794Z" style="fill:#99aecd"/><circle cx="43" cy="43" r="7" style="fill:#d8dfed"/><path d="M46,29a16.915,16.915,0,0,0-6.63,1.347,6.039,6.039,0,0,0-.9-1.347,5.991,5.991,0,0,0,0-8,5.991,5.991,0,0,0-.486-8.483c.012-.167.017-.34.017-.517a7.98,7.98,0,0,0-6.1-7.768A7.033,7.033,0,0,0,26,1a6.946,6.946,0,0,0-4,1.262A6.946,6.946,0,0,0,18,1a7.033,7.033,0,0,0-5.9,3.232A7.98,7.98,0,0,0,6,12c0,.177,0,.35.017.517A5.991,5.991,0,0,0,5.531,21a5.991,5.991,0,0,0,0,8,5.967,5.967,0,0,0-.678,7.065A8.247,8.247,0,0,0,1,43V57a1,1,0,0,0,1,1H33.971A17,17,0,1,0,46,29ZM7.6,28.2a4,4,0,0,1,0-6.4,1,1,0,0,0,0-1.6A4.029,4.029,0,0,1,6,17a3.971,3.971,0,0,1,1.658-3.241,1,1,0,0,0,.4-.967A5.036,5.036,0,0,1,8,12a5.98,5.98,0,0,1,4.908-5.9,1,1,0,0,0,.7-.5A5.032,5.032,0,0,1,18,3a4.95,4.95,0,0,1,3.329,1.281,1,1,0,0,0,1.342,0A4.95,4.95,0,0,1,26,3,5.032,5.032,0,0,1,30.4,5.6a1,1,0,0,0,.7.5A5.98,5.98,0,0,1,36,12a5.036,5.036,0,0,1-.057.792,1,1,0,0,0,.4.967A3.971,3.971,0,0,1,38,17a4.029,4.029,0,0,1-1.6,3.2,1,1,0,0,0,0,1.6,4,4,0,0,1,0,6.4,1,1,0,0,0,0,1.6,4.046,4.046,0,0,1,1.188,1.448,17.082,17.082,0,0,0-3.556,2.7L27,31.308V28.472A9.1,9.1,0,0,0,30.829,23H31a3.992,3.992,0,0,0,.99-7.861A1,1,0,0,0,31,14H29.385a6.92,6.92,0,0,1-6.456-4.372,1,1,0,0,0-1.858,0A6.92,6.92,0,0,1,14.615,14H13a1,1,0,0,0-.99,1.139A3.992,3.992,0,0,0,13,23h.171A9.1,9.1,0,0,0,17,28.472v2.836L6.658,35.185A3.975,3.975,0,0,1,6,33a4.029,4.029,0,0,1,1.6-3.2,1,1,0,0,0,0-1.6ZM29.286,49.028,25.412,56h-1.12l5.57-21.483,2.757,1.033a16.742,16.742,0,0,0-3.333,13.478ZM13,42H11.166l1.04-6.759,1.932-.724L19.708,56h-1.12L14,47.741V43A1,1,0,0,0,13,42Zm9-14a7.106,7.106,0,0,1-7-6.071L14.153,16h.462A8.9,8.9,0,0,0,22,12.115,8.9,8.9,0,0,0,29.385,16h.462L29,21.929A7.106,7.106,0,0,1,22,28Zm-3,4V29.476a8.85,8.85,0,0,0,6,0V32a1,1,0,0,0,.649.937l2.33.874L26.375,40h-8.75l-1.6-6.189,2.33-.874A1,1,0,0,0,19,32Zm-.856,10h7.712l-3.63,14h-.452ZM33,19a2,2,0,0,1-1.845,1.984l.55-3.849A2,2,0,0,1,33,19ZM12.3,17.135l.55,3.849a1.99,1.99,0,0,1-.55-3.849ZM3,43a6.244,6.244,0,0,1,4.033-5.819l3.025-1.135-1.046,6.8A1,1,0,0,0,10,44h2v4a.991.991,0,0,0,.126.485L16.3,56H3ZM27.7,56l2.339-4.209A16.912,16.912,0,0,0,32.283,56ZM46,61A15,15,0,1,1,61,46,15.017,15.017,0,0,1,46,61Z"/><path d="M50.412,46A8.015,8.015,0,1,0,46,50.412l4.673,4.673A3.121,3.121,0,0,0,56,52.88a3.1,3.1,0,0,0-.915-2.209ZM37,43a6,6,0,1,1,6,6A6.006,6.006,0,0,1,37,43ZM52.879,54a1.13,1.13,0,0,1-.794-.329L47.8,49.385A8,8,0,0,0,49.385,47.8l4.286,4.286A1.121,1.121,0,0,1,52.879,54Z"/></g></svg>